# xmcd
#
# Track frame offsets:
#	150
#	16905
#	34441
#	50563
#	71905
#	85650
#	101253
#	120045
#	158329
#	172356
#	204388
#	220039
#	242753
#	263683
#	277312
#	291466
#	312738
#
# Disc length: 4612 seconds
#
# Revision: 1
# Processed by: cddbd v1.5.1PL0 Copyright (c) Steve Scherf et al.
# Submitted via: audiograbber 1.82.02
#
DISCID=f9120211
DTITLE=SALSOUL ORCHESTRA - The Best Of The Salsoul Orchestra
DYEAR=2001
DGENRE=Dance
TTITLE0=Nice 'n' Nasty
TTITLE1=How High
TTITLE2=Magic Bird of Fire
TTITLE3=Runaway
TTITLE4=Tangerine
TTITLE5=Salsoul Hustle
TTITLE6=Dance A Little Bit Closer
TTITLE7=212 North 12th
TTITLE8=Getaway
TTITLE9=Night Fever
TTITLE10=Take Some Time Out (For Love)
TTITLE11=Seconds
TTITLE12=You're Just The Right Size
TTITLE13=Ritzy Mambo
TTITLE14=Short Shorts
TTITLE15=Chicago Bus Stop
TTITLE16=Catch Me On The Rebound
EXTD=
EXTT0=
EXTT1=
EXTT2=
EXTT3=
EXTT4=
EXTT5=
EXTT6=
EXTT7=
EXTT8=
EXTT9=
EXTT10=
EXTT11=
EXTT12=
EXTT13=
EXTT14=
EXTT15=
EXTT16=
PLAYORDER=
